<?xml version="1.0" standalone="no"?><!DOCTYPE svg PUBLIC "-//W3C//DTD SVG 1.1//EN" "http://www.w3.org/Graphics/SVG/1.1/DTD/svg11.dtd"><svg t="1690533897285" class="icon" viewBox="0 0 1024 1024" version="1.1" xmlns="http://www.w3.org/2000/svg" p-id="1031" xmlns:xlink="http://www.w3.org/1999/xlink" width="200" height="200"><path d="M51.712 52.3776m240.9984 0l439.6032 0q240.9984 0 240.9984 240.9984l0 439.6032q0 240.9984-240.9984 240.9984l-439.6032 0q-240.9984 0-240.9984-240.9984l0-439.6032q0-240.9984 240.9984-240.9984Z" fill="#F3F1FF" p-id="1032"></path><path d="M736.6144 632.1664l48.3328-245.4016a102.8096 102.8096 0 0 0-34.2528-67.584H306.6368a104.1408 104.1408 0 0 0-24.2176 31.8464l55.9616 307.2z" fill="#C9C7FF" p-id="1033"></path><path d="M784.5376 361.2672a75.5712 75.5712 0 0 0-22.5792-42.0864H295.2704a79.104 79.104 0 0 0-15.36 20.1728l1.6896 7.3728 47.104 258.816a361.0624 361.0624 0 0 0 65.536 18.2784c176.2816 31.6416 348.16-68.608 384.3584-223.9488a259.8912 259.8912 0 0 0 5.9392-38.6048z" fill="#D9D8FF" p-id="1034"></path><path d="M295.2704 319.1808a79.104 79.104 0 0 0-15.36 20.1728l1.6896 7.3728 32.3584 177.8176c171.52 20.48 334.8992-66.0992 396.9536-205.3632z" fill="#E6E4FF" p-id="1035"></path><path d="M295.2704 319.1808a79.104 79.104 0 0 0-15.36 20.1728l1.6896 7.3728 13.7216 75.5712c105.3696 1.0752 204.3392-37.7344 274.0736-103.1168z" fill="#F3F1FF" p-id="1036"></path><path d="M762.0608 691.9168H390.5024a27.3408 27.3408 0 0 1-27.0848-23.04L303.4112 301.7216a71.68 71.68 0 0 0-70.912-60.2624h-44.8512a23.04 23.04 0 0 0 0 46.08h44.8512a25.6 25.6 0 0 1 25.6 21.6064l59.8528 367.1552a73.2672 73.2672 0 0 0 72.5504 61.44h371.5584a23.04 23.04 0 1 0 0-46.08z" fill="#333333" p-id="1037"></path><path d="M795.136 311.0912a69.2736 69.2736 0 0 0-53.504-25.6h-400.896a23.04 23.04 0 0 0 0 46.08h400.896a23.1936 23.1936 0 0 1 17.9712 8.6528 26.368 26.368 0 0 1 5.4784 21.8624l-44.1856 228.7616a24.4736 24.4736 0 0 1-22.2208 20.48l-301.824 16.384a23.04 23.04 0 0 0 1.28 46.08H399.36l302.08-16.64a70.4512 70.4512 0 0 0 64.9728-57.5488l44.1344-228.5568a72.2944 72.2944 0 0 0-15.4112-59.9552z" fill="#333333" p-id="1038"></path><path d="M581.4272 431.872a20.48 20.48 0 0 0 12.4928 26.0608l36.7104 12.5952a19.7632 19.7632 0 0 0 6.656 1.1264 20.48 20.48 0 0 0 19.4048-13.9264l11.264-32.768a20.48 20.48 0 0 0-32.6656-22.0672 117.504 117.504 0 0 0-206.08 43.776 20.48 20.48 0 0 0 14.7968 24.9344 21.4528 21.4528 0 0 0 5.12 0.6144 20.48 20.48 0 0 0 19.8656-15.36 76.544 76.544 0 0 1 125.5936-37.7856 20.48 20.48 0 0 0-13.1584 12.8zM429.6704 554.5984a20.1728 20.1728 0 0 0 21.6576-5.12 117.76 117.76 0 0 0 206.0288-44.8512 20.48 20.48 0 0 0-39.7312-9.9328A76.8 76.8 0 0 1 491.52 532.48a20.48 20.48 0 0 0 10.24-10.9056 20.48 20.48 0 0 0-11.264-26.6752L456.8064 481.28A20.48 20.48 0 0 0 430.08 493.312l-12.544 35.1232a20.48 20.48 0 0 0 12.1344 26.1632zM400.4352 766.208a34.816 34.816 0 1 0 34.816 34.816 34.816 34.816 0 0 0-34.816-34.816z" fill="#333333" p-id="1039"></path><path d="M704.3072 801.024m-34.816 0a34.816 34.816 0 1 0 69.632 0 34.816 34.816 0 1 0-69.632 0Z" fill="#333333" p-id="1040"></path></svg>