<svg xmlns="http://www.w3.org/2000/svg" xmlns:xlink="http://www.w3.org/1999/xlink" fill="none" version="1.1" width="186" height="103" viewBox="0 0 186 103"><defs><filter id="master_svg0_53_54003" filterUnits="objectBoundingBox" color-interpolation-filters="sRGB" x="-16" y="-13" width="194" height="91.9148941040039"><feFlood flood-opacity="0" result="BackgroundImageFix"/><feColorMatrix in="SourceAlpha" type="matrix" values="0 0 0 0 0 0 0 0 0 0 0 0 0 0 0 0 0 0 127 0"/><feOffset dy="3" dx="0"/><feGaussianBlur stdDeviation="4"/><feColorMatrix type="matrix" values="0 0 0 0 0 0 0 0 0 0 0 0 0 0 0 0 0 0 0.1599999964237213 0"/><feBlend mode="normal" in2="BackgroundImageFix" result="effect1_dropShadow"/><feBlend mode="normal" in="SourceGraphic" in2="effect1_dropShadow" result="shape"/></filter></defs><g><g filter="url(#master_svg0_53_54003)"><rect x="12" y="28.085113525390625" width="162" height="59.914894104003906" rx="18.18181800842285" fill="#FFD60A" fill-opacity="1"/></g><g><path d="M39.4729423828125,72.34700000000001L40.9909423828125,70.532L41.1559423828125,69.27799999999999L37.3939423828125,69.27799999999999L36.9649423828125,72.34700000000001L31.9489423828125,72.34700000000001L34.2589423828125,56.111000000000004L48.0529423828125,56.111000000000004L46.0729423828125,70.169Q45.9409423828125,71.093,45.1984423828125,71.72Q44.4559423828125,72.34700000000001,43.4989423828125,72.34700000000001L39.4729423828125,72.34700000000001ZM37.9879423828125,51.722L37.8889423828125,49.841L36.8329423828125,48.587L44.0929423828125,48.587L44.2579423828125,51.722L50.5609423828125,51.722L51.2539423828125,49.643L50.3629423828125,48.587L57.8869423828125,48.587L56.7979423828125,51.722L60.5599423828125,51.722L60.1309423828125,54.857L33.7969423828125,54.857L34.2259423828125,51.722L37.9879423828125,51.722ZM49.5049423828125,72.314L52.4749423828125,69.245L54.3229423828125,56.111000000000004L59.338942382812505,56.111000000000004L57.3589423828125,70.136Q57.226942382812496,71.06,56.467942382812495,71.687Q55.708942382812495,72.314,54.7849423828125,72.314L49.5049423828125,72.314ZM52.936942382812504,57.035L51.220942382812495,69.27799999999999L47.458942382812495,69.27799999999999L49.1749423828125,57.035L52.936942382812504,57.035ZM37.8229423828125,66.143L41.6179423828125,66.143L41.8819423828125,64.262L38.0869423828125,64.262L37.8229423828125,66.143ZM38.5489423828125,61.126999999999995L42.3109423828125,61.126999999999995L42.5749423828125,59.245999999999995L38.8129423828125,59.245999999999995L38.5489423828125,61.126999999999995ZM78.54494238281251,52.283L78.8089423828125,50.402L77.71994238281249,49.214L85.5079423828125,49.214L85.0459423828125,52.283L90.6229423828125,52.283L90.1609423828125,55.55L84.5839423828125,55.55L83.9899423828125,59.906L89.0719423828125,59.906L88.6099423828125,63.206L83.5279423828125,63.206L82.7689423828125,68.486L88.8079423828125,68.486L88.3459423828125,71.819L69.7669423828125,71.819L70.2289423828125,68.486L76.2349423828125,68.486L76.99394238281249,63.206L71.9779423828125,63.206L72.43994238281249,59.906L77.45594238281251,59.906L78.08294238281249,55.55L72.6709423828125,55.55L73.1329423828125,52.283L78.54494238281251,52.283ZM70.8559423828125,57.364999999999995L68.7769423828125,72.24799999999999L62.8039423828125,72.24799999999999L64.71794238281251,58.553L62.6059423828125,58.949L63.1339423828125,55.187L71.3839423828125,53.603L70.8559423828125,57.364999999999995ZM71.5489423828125,52.349000000000004L63.3319423828125,53.933L63.8599423828125,50.171L72.07694238281249,48.587L71.5489423828125,52.349000000000004ZM119.9929423828125,48.587L121.3789423828125,53.603L118.2439423828125,53.603L117.4849423828125,59.213L119.9599423828125,59.213L118.6069423828125,68.91499999999999Q118.4749423828125,69.872,117.7489423828125,70.5155Q117.0229423828125,71.15899999999999,116.0659423828125,71.15899999999999L109.5319423828125,71.15899999999999L112.4689423828125,68.024L113.2609423828125,62.381L106.3639423828125,62.381L104.9449423828125,72.34700000000001L98.6749423828125,72.34700000000001L100.0609423828125,62.381L92.5699423828125,62.381L92.9989423828125,59.213L100.5229423828125,59.213L101.2489423828125,53.933L95.01194238281249,53.933L95.4409423828125,50.798L101.7109423828125,50.798L101.8429423828125,49.841L100.7869423828125,48.587L108.3109423828125,48.587L107.9809423828125,50.798L113.9209423828125,50.798L113.3269423828125,48.587L119.9929423828125,48.587ZM107.5519423828125,53.933L106.7929423828125,59.213L111.2149423828125,59.213L111.9409423828125,53.933L107.5519423828125,53.933ZM140.9149423828125,60.467L140.7169423828125,61.853L150.7159423828125,61.853L150.31994238281248,64.724L144.9409423828125,64.724L149.95694238281249,71.88499999999999L143.71994238281252,71.88499999999999L140.12294238281248,66.077L139.2649423828125,72.281L132.9949423828125,72.281L133.8529423828125,66.011L128.6389423828125,71.88499999999999L122.3689423828125,71.88499999999999L129.56294238281248,64.724L124.0189423828125,64.724L124.4149423828125,61.853L134.4469423828125,61.853L134.6449423828125,60.467L140.9149423828125,60.467ZM152.2999423828125,49.510999999999996L150.8149423828125,60.004999999999995L139.1329423828125,60.004999999999995L140.6179423828125,49.510999999999996L152.2999423828125,49.510999999999996ZM127.3519423828125,53.174L125.0089423828125,53.174L125.4049423828125,50.269999999999996L128.7379423828125,50.269999999999996L129.0019423828125,49.742000000000004L128.0119423828125,48.62L134.5129423828125,48.62L133.7539423828125,50.269999999999996L139.3309423828125,50.269999999999996L138.30794238281248,57.629000000000005Q138.17594238281248,58.586,137.44994238281248,59.2295Q136.72394238281248,59.873000000000005,135.7669423828125,59.873000000000005L131.3119423828125,59.873000000000005L133.5559423828125,56.804L134.05094238281248,53.174L132.4009423828125,53.174L129.2989423828125,59.873000000000005L124.1179423828125,59.873000000000005L127.3519423828125,53.174ZM146.4589423828125,57.167L147.11894238281252,52.448L145.3699423828125,52.448L144.7099423828125,57.167L146.4589423828125,57.167Z" fill="#FFFFFF" fill-opacity="1"/></g></g></svg>