<svg xmlns="http://www.w3.org/2000/svg" xmlns:xlink="http://www.w3.org/1999/xlink" fill="none" version="1.1" width="184" height="220" viewBox="0 0 184 220"><defs><filter id="master_svg0_53_2537" filterUnits="objectBoundingBox" color-interpolation-filters="sRGB" x="-20" y="-16" width="184" height="220"><feFlood flood-opacity="0" result="BackgroundImageFix"/><feColorMatrix in="SourceAlpha" type="matrix" values="0 0 0 0 0 0 0 0 0 0 0 0 0 0 0 0 0 0 127 0"/><feOffset dy="4" dx="0"/><feGaussianBlur stdDeviation="5"/><feColorMatrix type="matrix" values="0 0 0 0 0 0 0 0 0 0 0 0 0 0 0 0 0 0 0.3019607961177826 0"/><feBlend mode="normal" in2="BackgroundImageFix" result="effect1_dropShadow"/><feBlend mode="normal" in="SourceGraphic" in2="effect1_dropShadow" result="shape"/></filter></defs><g filter="url(#master_svg0_53_2537)"><path d="M57.08,90.34Q59.672,87.316,62.336,83.32Q65,79.324,67.52000000000001,74.932Q65.648,68.23599999999999,64.46000000000001,61.396Q63.272,54.556,62.552,47.572L38.36,49.228Q38.216,59.164,37.316,70.50399999999999Q36.416,81.844,34.256,95.668L23.816,92.932Q25.256,86.524,26.228,80.764Q27.2,75.00399999999999,27.776,69.712Q28.352,64.42,28.604,59.488Q28.856,54.556,28.856,49.876L27.2,49.948L25.112000000000002,40.876000000000005L61.904,39.22Q61.76,37.275999999999996,61.688,35.367999999999995Q61.616,33.46,61.544,31.516L71.26400000000001,30.364Q71.336,32.452,71.408,34.576Q71.47999999999999,36.7,71.624,38.788L75.29599999999999,38.572L72.056,32.739999999999995L80.19200000000001,30.076L82.64,37.42L80.47999999999999,38.356L86.456,38.068L88.616,45.772L72.344,46.924Q72.77600000000001,50.596,73.316,54.268Q73.856,57.94,74.576,61.468Q76.01599999999999,58.444,77.168,55.708Q78.32,52.972,79.112,50.884L86.816,54.628Q85.304,59.02,83.036,64.348Q80.768,69.676,77.96000000000001,75.22Q78.536,77.30799999999999,79.22,79.324Q79.904,81.34,80.696,83.212L85.448,80.404L90.128,86.596L75.584,96.1Q74.432,93.796,73.388,91.456Q72.344,89.116,71.408,86.74Q69.968,89.044,68.49199999999999,91.168Q67.01599999999999,93.292,65.576,95.164L57.08,90.34ZM60.464,62.836L60.032,86.38L39.152,87.46L38.72,64.348L60.464,62.836ZM59.312,51.46L60.68,58.372L41.096000000000004,60.748L39.152,52.972L59.312,51.46ZM52.4,79.9L51.68,70.684L47.144,71.476L46.784,80.548L52.4,79.9ZM134.12,65.068L134.048,68.452L157.088,67.372L159.608,74.71600000000001L140.744,76.156Q145.352,79.25200000000001,150.68,82.312Q156.008,85.372,161.408,87.604L152.912,95.02Q147.00799999999998,91.492,142.436,88.324Q137.864,85.156,133.76,81.628L133.47199999999998,95.092L123.608,95.452L123.464,81.484Q119.36,85.012,114.716,88.216Q110.072,91.42,104.168,95.02L95.672,87.604Q100.208,85.732,104.636,83.284Q109.064,80.836,113.168,78.172L99.632,79.18L96.608,70.18L123.32,68.956L123.32,66.364L134.12,65.068ZM111.08,43.828L97.688,44.692L95.024,35.620000000000005L110.792,35.044L110.72,31.588L121.016,30.796L120.8,34.684L134.12,34.18L134.048,30.652L144.344,29.86L144.128,33.82L158.312,33.316L160.328,40.66L143.768,41.739999999999995L143.624,45.34L134.55200000000002,45.772L134.40800000000002,42.316L120.44,43.251999999999995L120.296,46.275999999999996L111.224,46.708L111.08,43.828ZM98.12,49.3Q105.68,48.94,112.52,48.508Q119.36,48.076,125.804,47.572Q132.248,47.068,138.512,46.456Q144.776,45.844,151.184,45.052L155.36,51.82Q148.304,52.972,141.86,53.764Q135.416,54.556,129.11599999999999,55.132Q122.816,55.708,116.408,56.176Q110,56.644,102.944,57.148L98.12,49.3ZM146.50400000000002,54.052L155.144,58.516L145.928,66.72399999999999L139.664,63.052L146.50400000000002,54.052ZM101.432,61.18L111.44,57.58L117.056,65.068L110.288,68.524L101.432,61.18ZM121.016,57.796L131.888,55.78L133.904,63.196L126.056,65.28399999999999L121.016,57.796ZM43.760000000000005,152.044L43.616,142.97199999999998L30.152,143.836L26.912,134.188L43.544,133.612L43.4,121.588L54.56,120.796L54.56,133.252L72.92,132.60399999999998L65.576,126.484L70.75999999999999,120.868L87.824,131.38L81.488,139.732L77.096,136.06L75.368,150.964L85.376,150.604L83.792,180.268L61.688,175.3L61.472,169.036L74.21600000000001,168.82L73.928,160.036L54.56,161.116L54.56,185.812L44.192,186.46L43.832,161.692L26.408,162.628L23.384,152.692L43.760000000000005,152.044ZM54.56,142.324L54.56,151.684L65.72,151.324L66.152,141.53199999999998L54.56,142.324ZM134.768,128.284L134.768,121.156L144.488,119.932L144.344,127.924L148.448,127.78L145.49599999999998,122.884L153.128,120.22L157.304,127.492L159.968,127.42L161.552,134.404L144.272,135.772L144.272,139.588L158.888,138.724L158.816,184.948L145.424,182.428L145.424,176.74L150.392,176.308L150.248,170.692L143.84,171.196L143.696,183.724L135.2,184.156L135.128,171.988L129.07999999999998,172.492L129.00799999999998,184.876L120.656,185.308L120.08,140.88400000000001L134.912,140.09199999999998L134.84,136.49200000000002L121.808,137.5L119.864,128.716L134.768,128.284ZM99.992,141.676L94.448,139.3Q97.112,134.548,99.056,129.976Q101,125.404,102.512,120.796L111.08,122.452Q110.72,123.748,110.396,124.936Q110.072,126.124,109.712,127.276L117.056,127.132L118.712,134.476L106.616,135.916Q106.04,137.212,105.392,138.61599999999999Q104.744,140.01999999999998,103.952,141.45999999999998L116.984,140.74L118.856,148.228L112.376,149.164L112.232,154.564L117.56,154.204L119.936,161.836L112.088,163.06L111.944,173.428L117.128,171.988L119.36,178.54L102.584,185.38L102.44,164.572L96.968,165.436L94.304,155.644L102.44,155.14L102.368,150.604L98.768,151.108L95.384,141.892L99.992,141.676ZM143.912,163.492L150.032,163.06L149.888,158.524L143.98399999999998,159.028L143.912,163.492ZM129.07999999999998,164.5L135.05599999999998,164.068L135.05599999999998,159.82L129.152,160.396L129.07999999999998,164.5ZM144.128,147.796L144.128,151.324L149.672,150.964L149.6,147.292L144.128,147.796ZM129.152,152.332L134.98399999999998,151.972L134.98399999999998,148.516L129.224,149.02L129.152,152.332Z" fill="#FFFFFF" fill-opacity="1"/></g></svg>