<svg xmlns="http://www.w3.org/2000/svg" xmlns:xlink="http://www.w3.org/1999/xlink" fill="none" version="1.1" width="186" height="103" viewBox="0 0 186 103"><defs><filter id="master_svg0_53_54005" filterUnits="objectBoundingBox" color-interpolation-filters="sRGB" x="-16" y="-13" width="194" height="91.9148941040039"><feFlood flood-opacity="0" result="BackgroundImageFix"/><feColorMatrix in="SourceAlpha" type="matrix" values="0 0 0 0 0 0 0 0 0 0 0 0 0 0 0 0 0 0 127 0"/><feOffset dy="3" dx="0"/><feGaussianBlur stdDeviation="4"/><feColorMatrix type="matrix" values="0 0 0 0 0 0 0 0 0 0 0 0 0 0 0 0 0 0 0.1599999964237213 0"/><feBlend mode="normal" in2="BackgroundImageFix" result="effect1_dropShadow"/><feBlend mode="normal" in="SourceGraphic" in2="effect1_dropShadow" result="shape"/></filter></defs><g><g filter="url(#master_svg0_53_54005)"><rect x="12" y="28.085113525390625" width="162" height="59.914894104003906" rx="18.18181800842285" fill="#D8D8D8" fill-opacity="1"/></g><g><path d="M49.8679423828125,50.237L49.9339423828125,49.907L48.844942382812505,48.653L54.7849423828125,48.653L54.5539423828125,50.237L61.219942382812505,50.237L60.1639423828125,57.662L46.4359423828125,57.662L43.6639423828125,72.281L39.6379423828125,72.281L43.6969423828125,50.237L49.8679423828125,50.237ZM49.1089423828125,66.77L48.217942382812495,66.77L47.458942382812495,72.281L44.6539423828125,72.281L46.5349423828125,58.916L60.592942382812495,58.916L58.942942382812504,70.532Q58.8439423828125,71.19200000000001,58.2829423828125,71.7365Q57.7219423828125,72.281,57.0289423828125,72.281L53.9599423828125,72.281L54.7849423828125,71.39L52.210942382812505,71.39L52.8379423828125,66.77L51.9469423828125,66.77L51.2869423828125,71.423L48.448942382812504,71.423L49.1089423828125,66.77ZM33.4999423828125,56.111000000000004L37.195942382812504,49.478L36.6019423828125,48.653L42.3439423828125,48.653L38.1859423828125,56.111000000000004L41.320942382812504,56.111000000000004L37.1299423828125,63.602000000000004L40.2649423828125,63.602000000000004L39.8029423828125,66.737L31.9819423828125,66.737L32.4439423828125,63.602000000000004L34.8529423828125,59.245999999999995L33.0379423828125,59.245999999999995L33.4999423828125,56.111000000000004ZM39.2089423828125,71.126L31.2889423828125,71.753L31.7179423828125,68.618L39.6379423828125,67.991L39.2089423828125,71.126ZM56.3029423828125,53.339L47.2609423828125,53.339L47.095942382812495,54.56L56.1379423828125,54.56L56.3029423828125,53.339ZM56.1709423828125,69.905L56.5999423828125,66.77L55.6759423828125,66.77L55.0819423828125,71.06L56.1709423828125,69.905ZM56.4349423828125,61.457L56.104942382812496,63.833L57.0289423828125,63.833L57.3589423828125,61.457L56.4349423828125,61.457ZM52.342942382812495,63.833L53.2669423828125,63.833L53.5969423828125,61.457L52.6729423828125,61.457L52.342942382812495,63.833ZM48.6469423828125,63.833L49.5049423828125,63.833L49.8349423828125,61.457L48.976942382812496,61.457L48.6469423828125,63.833ZM74.8159423828125,68.55199999999999L76.1359423828125,59.245999999999995L75.1789423828125,59.245999999999995L75.5419423828125,56.672L91.1839423828125,56.672L90.82094238281249,59.213L89.9299423828125,59.213L88.74194238281251,67.496L89.8639423828125,67.39699999999999L89.4349423828125,70.235L88.3459423828125,70.334L88.0819423828125,72.314L83.2969423828125,72.314L83.5279423828125,70.73L73.59494238281249,71.555L73.9909423828125,68.618L74.8159423828125,68.55199999999999ZM63.8269423828125,58.882999999999996L65.6089423828125,54.164L64.18994238281249,54.164L64.6519423828125,50.963L66.8299423828125,50.963L67.3579423828125,49.61L66.7639423828125,48.62L71.6149423828125,48.62L70.7569423828125,50.963L75.8719423828125,50.963L75.4099423828125,54.164L69.56894238281251,54.164L67.7539423828125,59.081L69.0409423828125,59.081L69.6019423828125,55.187L73.59494238281249,55.187L73.0339423828125,59.081L74.6509423828125,59.081L74.1889423828125,62.348L72.5719423828125,62.348L72.3079423828125,64.229L74.32094238281249,63.866L73.8259423828125,67.39699999999999L71.7799423828125,67.76L71.1529423828125,72.314L66.3349423828125,72.314L66.86294238281249,68.651L62.0449423828125,69.509L62.5399423828125,65.97800000000001L67.3579423828125,65.12L67.7539423828125,62.348L63.3319423828125,62.348L63.8269423828125,58.882999999999996ZM77.4889423828125,50.435L76.7629423828125,49.082L91.2169423828125,49.082L90.2269423828125,55.979L76.6969423828125,55.979L77.4889423828125,50.435ZM86.43194238281251,51.623L81.7459423828125,51.623L81.48194238281249,53.438L86.1679423828125,53.438L86.43194238281251,51.623ZM79.5679423828125,68.189L83.9239423828125,67.85900000000001L84.08894238281249,66.77L79.7659423828125,66.77L79.5679423828125,68.189ZM80.1289423828125,64.229L84.45194238281249,64.229L84.61694238281251,63.007999999999996L80.2939423828125,63.007999999999996L80.1289423828125,64.229ZM80.8219423828125,59.245999999999995L80.6569423828125,60.467L84.97994238281251,60.467L85.1449423828125,59.245999999999995L80.8219423828125,59.245999999999995ZM113.7229423828125,68.024L114.2839423828125,63.965L100.4899423828125,63.965L99.9289423828125,68.024L98.5759423828125,68.651L94.8139423828125,68.651L95.8699423828125,61.126999999999995L119.6959423828125,61.126999999999995L118.6399423828125,68.651L114.8779423828125,68.651L113.7229423828125,68.024ZM106.5289423828125,70.037L101.5129423828125,72.34700000000001L92.70194238281249,72.34700000000001L103.7899423828125,67.232L104.1199423828125,64.889L110.3899423828125,64.889L110.0599423828125,67.232L119.6629423828125,72.34700000000001L110.8849423828125,72.34700000000001L106.5289423828125,70.037ZM110.1589423828125,49.841L121.2799423828125,49.841L120.8509423828125,52.976L119.6299423828125,54.857L114.6139423828125,54.857L115.9669423828125,52.646L108.7399423828125,52.646L108.2449423828125,53.603L103.1959423828125,53.603L105.3079423828125,49.510999999999996L104.5489423828125,48.587L110.8189423828125,48.587L110.1589423828125,49.841ZM111.5119423828125,57.001999999999995L109.0039423828125,59.873000000000005L102.9649423828125,59.873000000000005L108.0799423828125,53.933L114.1519423828125,53.933L112.7989423828125,55.484L116.4949423828125,55.484L119.8939423828125,59.873000000000005L113.7559423828125,59.873000000000005L111.5119423828125,57.001999999999995ZM99.9949423828125,59.873000000000005L94.8139423828125,59.873000000000005L97.3219423828125,53.9L102.5359423828125,53.9L99.9949423828125,59.873000000000005ZM102.6679423828125,52.976L97.3219423828125,52.976L96.2989423828125,49.214L101.6119423828125,49.214L102.6679423828125,52.976ZM151.0129423828125,65.615L149.3299423828125,65.846L148.4059423828125,72.34700000000001L143.22494238281251,72.34700000000001L144.0169423828125,66.539L136.8889423828125,67.496L137.3509423828125,64.163L144.4789423828125,63.206L146.39294238281252,49.808L145.2709423828125,48.587L151.77194238281248,48.587L149.7919423828125,62.513000000000005L151.47494238281251,62.282L151.0129423828125,65.615ZM128.5729423828125,59.543L124.4809423828125,59.543L124.9099423828125,56.408L129.0019423828125,56.408L129.92594238281248,49.94L128.8039423828125,48.62L134.97494238281251,48.62L133.8529423828125,56.408L137.3179423828125,56.408L136.8889423828125,59.543L133.4239423828125,59.543L131.6089423828125,72.314L126.7579423828125,72.314L128.5729423828125,59.543ZM135.8659423828125,71.093L133.0939423828125,71.093L133.8529423828125,60.467L136.7569423828125,60.467L135.8659423828125,71.093ZM125.0419423828125,60.5L127.9129423828125,60.5L125.6689423828125,71.06L122.8969423828125,71.06L125.0419423828125,60.5ZM143.8519423828125,62.018L138.9349423828125,62.018L138.3409423828125,57.662L143.2579423828125,57.662L143.8519423828125,62.018ZM144.8749423828125,55.385000000000005L139.95794238281252,55.385000000000005L139.2979423828125,51.028999999999996L144.2149423828125,51.028999999999996L144.8749423828125,55.385000000000005ZM128.6059423828125,49.907L128.47394238281248,55.516999999999996L125.7349423828125,55.516999999999996L125.8669423828125,49.907L128.6059423828125,49.907ZM138.8359423828125,49.907L137.3839423828125,55.516999999999996L134.6449423828125,55.516999999999996L136.0969423828125,49.907L138.8359423828125,49.907Z" fill="#FFFFFF" fill-opacity="1"/></g></g></svg>